<svg width="200" height="60" viewBox="0 0 200 60" xmlns="http://www.w3.org/2000/svg">
  <polygon points="20.0,15.0 23.5,25.1 34.3,25.4 25.7,31.9 28.8,42.1 20.0,36.0 11.2,42.1 14.3,31.9 5.7,25.4 16.5,25.1" fill="#4f46e5" />
  <polygon points="60.0,15.0 63.5,25.1 74.3,25.4 65.7,31.9 68.8,42.1 60.0,36.0 51.2,42.1 54.3,31.9 45.7,25.4 56.5,25.1" fill="#4f46e5" />
  <polygon points="100.0,15.0 103.5,25.1 114.3,25.4 105.7,31.9 108.8,42.1 100.0,36.0 91.2,42.1 94.3,31.9 85.7,25.4 96.5,25.1" fill="#4f46e5" />
  <polygon points="140.0,15.0 143.5,25.1 154.3,25.4 145.7,31.9 148.8,42.1 140.0,36.0 131.2,42.1 134.3,31.9 125.7,25.4 136.5,25.1" fill="#4f46e5" />
  <polygon points="180.0,15.0 183.5,25.1 194.3,25.4 185.7,31.9 188.8,42.1 180.0,36.0 171.2,42.1 174.3,31.9 165.7,25.4 176.5,25.1" fill="#4f46e5" />
</svg>